<?xml version="1.0" encoding="UTF-8" standalone="no"?>
<svg width="1024" height="1024" viewBox="0 0 1024 1024" xmlns="http://www.w3.org/2000/svg">
  <defs>
    <linearGradient id="coatGrad" x1="0" y1="0" x2="0" y2="1">
      <stop offset="0%" stop-opacity="1" stop-color="#222222"/>
      <stop offset="100%" stop-opacity="1" stop-color="#2f2f2f"/>
    </linearGradient>
    <linearGradient id="hatGrad" x1="0" y1="0" x2="1" y2="1">
      <stop offset="0%" stop-color="#1a1a1a"/>
      <stop offset="100%" stop-color="#303030"/>
    </linearGradient>
    <linearGradient id="mascotGrad" x1="0" y1="0" x2="0" y2="1">
      <stop offset="0%" stop-color="#121212"/>
      <stop offset="100%" stop-color="#1e1e1e"/>
    </linearGradient>
    <clipPath id="crop">
      <rect x="64" y="64" width="896" height="896" rx="128"/>
    </clipPath>
  </defs>

  <!-- Transparent background by default (no rect fill) -->

  <g clip-path="url(#crop)" transform="translate(0,0)">

    <!-- Spy shadow for depth -->
    <ellipse cx="512" cy="820" rx="320" ry="60" fill="#000" opacity="0.15"/>

    <!-- Spy hat -->
    <g transform="translate(262,170)">
      <ellipse cx="250" cy="140" rx="300" ry="70" fill="#000" opacity="0.15"/>
      <path d="M60,160 C140,70 360,70 440,160 L460,210 C470,230 450,250 430,245 L80,245 C60,250 40,230 50,210 Z"
            fill="url(#hatGrad)"/>
      <path d="M120,100 C220,30 380,30 480,100 L480,140 C390,90 210,90 120,140 Z"
            fill="#0f0f0f"/>
    </g>

    <!-- Spy head + glasses -->
    <g transform="translate(300,260)">
      <path d="M0,200 C0,90 90,10 220,10 C350,10 440,90 440,200 C440,320 360,400 220,400 C80,400 0,320 0,200 Z"
            fill="#f0c8a0"/>
      <path d="M40,210 a80,70 0 1 0 160,0 a80,70 0 1 0 -160,0" fill="#0b0b0b"/>
      <path d="M220,210 a80,70 0 1 0 160,0 a80,70 0 1 0 -160,0" fill="#0b0b0b"/>
      <rect x="194" y="200" width="52" height="16" rx="8" fill="#0b0b0b"/>
      <path d="M220,250 C230,270 240,290 240,300 C210,305 190,305 160,300 C165,285 185,265 200,250 Z"
            fill="#2a2a2a" opacity="0.35"/>
      <!-- Nose hint -->
      <path d="M210,250 C230,295 220,330 205,340" stroke="#a37958" stroke-width="6" fill="none" stroke-linecap="round"/>
      <!-- Ears -->
      <circle cx="18" cy="230" r="22" fill="#f0c8a0"/>
      <circle cx="422" cy="230" r="22" fill="#f0c8a0"/>
      <!-- Collar / coat top -->
      <path d="M-20,360 L120,300 L220,360 L320,300 L460,360 L420,520 L20,520 Z" fill="url(#coatGrad)"/>
    </g>

    <!-- Trench coat body -->
    <g transform="translate(180,520)">
      <path d="M80,0 L300,0 L480,0 L560,200 L520,330 C500,390 450,430 390,440 L220,440 C160,430 110,390 90,330 L50,200 Z"
            fill="url(#coatGrad)"/>
    </g>

    <!-- Mascot (cat-octo inspired but distinct: 6 legs, different face) -->
    <g transform="translate(312,540)">
      <!-- tail -->
      <path d="M80,210 C40,210 20,250 40,280 C65,315 130,300 140,260" fill="none" stroke="#0f0f0f" stroke-width="22" stroke-linecap="round"/>
      <!-- head -->
      <ellipse cx="220" cy="140" rx="160" ry="130" fill="url(#mascotGrad)"/>
      <!-- ears -->
      <path d="M120,70 L90,10 L160,40 Z" fill="#151515"/>
      <path d="M320,70 L350,10 L280,40 Z" fill="#151515"/>
      <!-- face -->
      <ellipse cx="220" cy="150" rx="120" ry="88" fill="#f2e7dc"/>
      <circle cx="185" cy="150" r="18" fill="#0e0e0e"/>
      <circle cx="255" cy="150" r="18" fill="#0e0e0e"/>
      <circle cx="220" cy="185" r="10" fill="#0e0e0e"/>
      <!-- legs (6) -->
      <g stroke="#111" stroke-width="22" stroke-linecap="round">
        <path d="M110,250 v80"/>
        <path d="M160,255 v85"/>
        <path d="M205,260 v90"/>
        <path d="M235,260 v90"/>
        <path d="M280,255 v85"/>
        <path d="M330,250 v80"/>
      </g>
      <!-- subtle bottom shadow -->
      <ellipse cx="220" cy="348" rx="180" ry="28" fill="#000" opacity="0.18"/>
    </g>

    <!-- Optional repo glyph behind mascot (git diamond with nodes) -->
    <g transform="translate(640,520) rotate(10)">
      <rect x="-40" y="-40" width="160" height="160" rx="20" fill="#f4f4f4" opacity="0.0"/>
      <path d="M0,40 L60,-20 L140,60 L80,120 Z" fill="#e24329" opacity="0.0"/>
    </g>

  </g>
</svg>
